PathFileType	4	(X/Y/Z)	Patient4_TMGait_0pt3_01_left_26.trc.trc
DataRate	CameraRate	NumFrames	NumMarkers	Units	OrigDataRate	OrigDataStartFrame	OrigNumFrames
50.909090909091	50.909090909091	6	33	mm	50.909090909091	124	       141
Frame#	Time	Sacral			L.Shoulder			Chest			R.Shoulder			Neck			R.ASIS			L.ASIS			R.Thigh.Superior			R.Thigh.Lateral			R.Thigh.Inferior			R.Patella			L.Thigh.Superior			L.Thigh.Lateral			L.Thigh.Inferior			L.Patella			L.Shank.Superior			L.Shank.Lateral			L.Shank.Inferior			R.Shank.Superior			R.Shank.Lateral			R.Shank.Inferior			R.Heel			R.Midfoot.Superior			R.Midfoot.Lateral			R.Toe			L.Heel			L.Midfoot.Lateral			L.Midfoot.Superior			L.Toe			L.Elbow			L.Wrist			R.Elbow			R.Wrist			
		X1	Y1	Z1	X2	Y2	Z2	X3	Y3	Z3	X4	Y4	Z4	X5	Y5	Z5	X6	Y6	Z6	X7	Y7	Z7	X8	Y8	Z8	X9	Y9	Z9	X10	Y10	Z10	X11	Y11	Z11	X12	Y12	Z12	X13	Y13	Z13	X14	Y14	Z14	X15	Y15	Z15	X16	Y16	Z16	X17	Y17	Z17	X18	Y18	Z18	X19	Y19	Z19	X20	Y20	Z20	X21	Y21	Z21	X22	Y22	Z22	X23	Y23	Z23	X24	Y24	Z24	X25	Y25	Z25	X26	Y26	Z26	X27	Y27	Z27	X28	Y28	Z28	X29	Y29	Z29	X30	Y30	Z30	X31	Y31	Z31	X32	Y32	Z32	X33	Y33	Z33	

124	51.266071428571	682.350677894812	1002.620562034415	564.853501155128	839.902270326100	1413.280222096112	335.262429874644	971.210311130094	1346.461566964309	475.569253860880	928.869168391886	1437.078820999116	655.721002037308	860.063481464341	1482.420034579266	487.057863528790	922.157229317192	930.329036677450	645.811275488415	869.285827399384	950.689183495257	375.763837437194	924.540972258453	719.184005976592	612.254009894765	829.763451579651	618.129349860768	675.900679036394	888.644442188034	558.547661267884	589.339187243451	872.429852496160	470.446446726722	593.083189529804	941.545149445455	758.720978267478	397.479867119482	877.412445018705	634.989275539076	323.846025172667	979.618523999429	570.399016767578	381.497615838842	1002.634589748987	508.883380962802	377.946229310373	987.215078108063	439.896082635208	365.445160890716	924.449145556621	309.963779525883	310.681987338455	1015.628774938605	211.707966695160	361.326955724076	828.648132595157	386.676479048184	598.617388899104	742.455293584471	293.982809330186	659.254411288993	764.521588334362	196.714075658040	591.914205694924	607.218706419058	43.552855322490	556.462764546272	777.953359363994	95.756380075153	599.956259493097	686.658564585051	36.568300739662	634.936656847527	895.150294539853	41.042505476040	634.615124753839	931.768016520333	37.385463512651	395.388674801263	1006.745869623715	39.063213869250	316.097508232014	1081.768719141971	111.234267984088	339.066209160954	1213.418076632931	74.050167347778	313.979642109604	669.084460433892	1098.353446382576	282.144534719784	611.793045016909	846.694467521261	328.658254629594	1100.968092219226	1160.651733585012	791.546022232977	1349.312782279774	1198.084340797654	737.882026100958	
125	51.285714285714	683.600104839784	1001.969394307042	561.661461605747	841.229247506563	1411.579908214171	330.585637114279	972.633108666751	1345.126113139041	471.041529392290	930.393390923629	1436.417819847372	650.778176010975	861.353430582102	1481.234118942451	482.200800734960	923.293698820803	929.355470078865	643.127266582555	870.593920801273	949.186145006505	373.060282080814	924.256386857325	717.838433906606	610.280448957017	828.299640168916	617.647800400517	674.018800910027	886.602502528942	557.323977170634	587.799037081191	869.364739766512	469.348369652749	591.604656280570	942.560532863032	757.072305580296	394.902552123088	876.899718474792	633.272848968470	322.385399819725	979.372388572047	569.095421892473	379.459396694383	1001.362598125186	507.139810770346	376.488729539389	986.221012346463	437.816397455152	364.015066137173	922.686580663717	308.146652061169	310.023455358937	1013.229915405484	209.743577812172	360.994783278150	825.047235077454	385.924893165754	597.451411893062	738.158256445378	294.081656723104	658.585246002505	759.533719195797	196.455400904207	591.536466115302	601.344042696149	43.707458491331	556.500932769176	772.180344868968	95.722987839728	599.824052564240	680.816486882621	36.596188976409	634.930475580936	889.309331396923	40.946563178474	634.653755462395	927.605317382825	37.279651086489	395.663352761415	1002.254840410454	38.323497672477	315.950092139171	1078.531410967338	108.856974497848	339.316130882391	1209.512853899917	69.569506950780	313.414713695433	671.940112681982	1095.624548243939	279.498893093248	613.888817914399	844.178196286307	327.010563315695	1106.778789007393	1163.164633308681	785.400537990093	1353.571711503633	1205.449714076451	728.458399774082	
126	51.305357142857	685.078633511538	1001.421976413799	558.232213689739	842.595304250003	1410.006982766681	325.730697993477	974.141442648827	1343.992554200987	466.335182209020	931.939375770287	1435.917782753307	645.680094040273	862.633097514820	1480.200385953775	477.145330184704	924.677664102570	928.482730482256	640.167635475744	872.171401820644	947.940895536164	370.109564424743	924.267741284138	716.565099834085	608.066358493762	827.162484978798	617.243843812559	671.924467517101	884.904577011417	556.178657617168	586.045417310604	866.652981300217	468.276428354001	589.929958944923	944.303424843086	756.098108735306	392.417637701422	877.644493637941	632.088826317197	320.901828023573	980.373181275383	568.480848252365	377.515292737576	1001.221167354104	505.743766599432	375.097276188588	986.162904491880	435.898388992803	362.630413750195	921.297635069597	306.783361911558	309.286417818549	1010.539246272145	207.758515060719	360.771811372709	821.722093392807	385.251661676447	596.150635798308	734.072367170168	294.347782356321	657.835182873370	754.659176102613	196.307440003586	591.129973081802	595.514722631535	44.082560724612	556.580890076910	766.455077054413	95.689529971745	599.641230936045	675.029747646730	36.737772035845	634.937230621167	883.523596629137	40.791852440187	634.699806056482	922.266804343858	37.328107735321	396.065312028248	996.554887820021	37.613246266894	315.897928581059	1074.247444678943	106.395277822545	339.641923069846	1204.491955948431	64.783565743230	312.864151210766	675.538110527249	1092.612168005918	276.183915144134	617.421695374697	841.169832631548	324.113821579951	1111.880540357803	1165.431446621178	779.338071214499	1357.409086733126	1211.444081244227	719.675931840222	
127	51.325000000000	686.757595778666	1001.060090786993	554.574015783307	843.979051630037	1408.668617775002	320.773820806146	975.728764067210	1343.128365252468	461.489341873012	933.544635627149	1435.630929823394	640.485006952620	863.914885892471	1479.393746044387	471.979382269525	926.272515501682	927.765477998826	636.904966292908	873.966941410170	947.032209222053	366.878234954146	924.483957618667	715.429077138235	605.585998043074	826.284355693363	616.989512363324	669.625468375760	883.488069045048	555.180034839978	584.091317159922	864.235934825111	467.306664324011	588.096258464661	946.665266391151	755.827748570373	389.978239111253	879.560334171088	631.479905156164	319.300816231483	982.491946259057	568.512731173035	375.598156680514	1002.122828638726	504.729547318736	373.720070222683	986.974336293325	434.235068037107	361.271969252447	920.412563856183	305.898269776888	308.378225176285	1007.764944531560	205.881340278679	360.612507343654	818.640265838389	384.732393724688	594.746476812006	730.168477815908	294.845816932210	657.010418466644	749.894845756123	196.335441092416	590.710128159143	589.740165442352	44.766202450518	556.710003080493	760.792630432770	95.669424782378	599.410325555825	669.303463164600	37.046455329721	634.962626779745	877.790847584991	40.567749735575	634.752965547481	916.224072108896	37.476684467917	396.482331420760	990.177339028747	36.981657666095	315.892240394482	1069.278900534687	104.066796463817	340.000726355054	1198.805077541193	60.170696071794	312.402235780363	679.728897555199	1089.532884340119	272.193630785879	622.293890957661	837.867454075552	319.923663190145	1116.357707662093	1167.471507963652	773.377471480106	1360.989353108084	1216.096288484072	711.591575507580	
128	51.344642857143	688.602957955158	1000.938360563413	550.673497799158	845.375707339192	1407.653625500733	315.779293041507	977.385933316663	1342.584747711915	456.549410171203	935.218530726710	1435.587556618090	635.251918949398	865.208725499558	1478.870327413090	466.784800358801	928.034556779791	927.251162152986	633.325808718690	875.944620632464	946.498162603600	363.339511700469	924.822497179990	714.490918620213	602.831510479800	825.601594746756	616.948664491312	667.134404979645	882.304642823165	554.388612033472	581.962309591418	862.074746314904	466.505115708670	586.151816398696	949.506577120891	756.202809309081	387.525539399304	882.454059890854	631.409103333303	317.508153343749	985.497743292436	569.064264833906	373.648306430515	1003.890296163818	504.065295544437	372.313605394169	988.483178187492	432.860434599639	359.926227583364	920.027035430272	305.463518690761	307.264171697801	1005.004905567368	204.198549571679	360.485319739574	815.778947767836	384.429955521660	593.273686727488	726.423625202259	295.633635998326	656.116913543392	745.244249107324	196.599236690692	590.291641178665	584.027439548140	45.847764003733	556.891094089837	755.209231601277	95.682513822082	599.142597393567	663.636437936408	37.578466065175	635.011384043994	872.098369740898	40.269565437389	634.812169692279	909.838744471175	37.675821563413	396.838314790378	983.520454281463	36.467758105810	315.898764879085	1063.894955495626	102.032979945453	340.361664843988	1192.786444336597	56.089476653726	312.065691340059	684.377972095562	1086.591483467986	267.522656626618	628.416620760906	834.473817761683	314.429163569057	1120.287261421314	1169.297015764321	767.517414655238	1364.443965930800	1219.403472263750	704.259918674129	
129	51.364285714286	690.577133430262	1001.081929000907	546.498961845271	846.799038547907	1407.024979035136	310.792330628596	979.102628752434	1342.393656995144	451.563452850546	936.940127296009	1435.796103103650	630.035359252875	866.520640161157	1478.664019593728	461.628344380392	929.916261458253	926.975535068953	629.434380244437	878.085866293674	946.336176150156	359.480263007001	925.220649849129	713.800047168797	599.815752476752	825.062332428033	617.169891545617	664.467922529074	881.325885264084	553.849403175933	579.693454979145	860.155504247846	465.918365948179	584.150574950358	952.664079523179	757.083043410366	384.990482740536	886.032565313357	631.768608222063	315.472496676211	989.072452919075	569.947281490224	371.615181078014	1006.264545627023	503.668712318090	370.841779902694	990.432005341478	431.756474352852	358.577531190278	920.016801527499	305.402557580570	305.958715846841	1002.262419979831	202.750660917275	360.366447347735	813.127697976521	384.387909203692	591.767272491457	722.823231878913	296.757149717856	655.160366933132	740.717046535096	197.147505955368	589.887460065958	578.381055630411	47.409433589354	557.121675813745	749.721505014548	95.754873164303	598.860408560169	658.020544257435	38.387081544237	635.086098776020	866.422515465852	39.900120278493	634.875441565526	903.355040798261	37.885175759797	397.093817977726	976.843402506046	36.091694052089	315.897702055553	1058.276375301181	100.383702913406	340.704478197309	1186.655345535771	52.743638676270	311.859440331486	689.374994440749	1083.964168309755	262.165054332666	635.712728623838	831.181295466096	307.651127382956	1123.726192115754	1170.910520273485	761.741642496340	1367.858293739810	1221.328628361657	697.735315061137	
